<svg xmlns="http://www.w3.org/2000/svg" viewBox="0 0 32 32"><g color="#000" font-family="sans-serif" font-weight="400"><path fill="#5a3392" fill-rule="evenodd" style="line-height:normal;text-indent:0;text-align:start;text-decoration-line:none;text-decoration-style:solid;text-decoration-color:#000;text-transform:none;block-progression:tb;white-space:normal;isolation:auto;mix-blend-mode:normal;solid-color:#000;solid-opacity:1" d="M629.914 1433.074a.5.5 0 0 0-.389.184l-.966 1.152a.5.5 0 0 0 .066.705l.2.166-18.638 20.297c-.241.263-.508.258-.783.068-.195-.214-.246-.438-.052-.654a.5.5 0 0 0 .015-.02c.011-.01.016-.017.02-.021a.5.5 0 0 0 .01-.012l.252-.301c.491-.545.685-1.196.607-1.783-.078-.587-.397-1.098-.828-1.46-.431-.36-.989-.587-1.58-.562-.592.026-1.201.33-1.652.908l-.211.25c-1.833 2.053-1.652 5.258.4 7.09a.5.5 0 0 0 .035.03c-.019-.016.012.01.02.015 2.143 1.798 5.399 1.514 7.197-.629a.5.5 0 0 0 .004 0l6.129-7.718-1.063-.875.655-.774 1.039.856.623-.787-1.051-.866.654-.773 1.028.846 9.119-11.483.16.133a.5.5 0 0 0 .705-.055l.967-1.156a.5.5 0 0 0-.06-.71l-2.307-1.935a.5.5 0 0 0-.04-.033.5.5 0 0 0-.283-.088h-.002z" overflow="visible" transform="translate(-602.723 -1431.077) scale(.99999)"/><path fill="#ee746c" fill-rule="evenodd" d="m166.68 668.02.409.343-.086.102-.409-.342.086-.103z" overflow="visible" style="line-height:normal;text-indent:0;text-align:start;text-decoration-line:none;text-decoration-style:solid;text-decoration-color:#000;text-transform:none;block-progression:tb;white-space:normal;isolation:auto;mix-blend-mode:normal;solid-color:#000;solid-opacity:1" transform="translate(-602.723 -2521.596) scale(3.77953)"/><path fill="#fb9761" fill-rule="evenodd" d="m630.682 1434.877-.327.385.838.7.325-.384-.836-.701z" overflow="visible" transform="translate(-602.723 -1431.077) scale(.99999)" style="line-height:normal;text-indent:0;text-align:start;text-decoration-line:none;text-decoration-style:solid;text-decoration-color:#000;text-transform:none;block-progression:tb;white-space:normal;isolation:auto;mix-blend-mode:normal;solid-color:#000;solid-opacity:1"/><path fill="#29a3ec" fill-rule="evenodd" d="m166.578 668.456.11.093-1.298 1.633-.224-.188 1.412-1.537z" overflow="visible" style="line-height:normal;text-indent:0;text-align:start;text-decoration-line:none;text-decoration-style:solid;text-decoration-color:#000;text-transform:none;block-progression:tb;white-space:normal;isolation:auto;mix-blend-mode:normal;solid-color:#000;solid-opacity:1" transform="translate(-602.723 -2521.596) scale(3.77953)"/><path fill="#3cdef6" fill-rule="evenodd" d="m629.705 1436.031-5.088 6.02.479.402 4.904-6.174-.295-.248z" overflow="visible" transform="translate(-602.723 -1431.077) scale(.99999)" style="line-height:normal;text-indent:0;text-align:start;text-decoration-line:none;text-decoration-style:solid;text-decoration-color:#000;text-transform:none;block-progression:tb;white-space:normal;isolation:auto;mix-blend-mode:normal;solid-color:#000;solid-opacity:1"/><path fill="#fff" fill-rule="evenodd" style="line-height:normal;text-indent:0;text-align:start;text-decoration-line:none;text-decoration-style:solid;text-decoration-color:#000;text-transform:none;block-progression:tb;white-space:normal;isolation:auto;mix-blend-mode:normal;solid-color:#000;solid-opacity:1" d="m164.987 670.19.239.2-3.072 3.866a1.094 1.094 0 0 1-1.53.134.132.132 0 0 0-.005-.004l-.003-.003a1.07 1.07 0 0 1-.084-1.502.132.132 0 0 0 .003-.003l.062-.074a.132.132 0 0 0 .003-.003c.078-.1.157-.135.238-.138a.359.359 0 0 1 .238.087.355.355 0 0 1 .126.218c.01.081-.007.166-.093.26a.132.132 0 0 0-.003.003l-.07.084c-.004.003-.005.005-.007.008a.397.397 0 0 0 .027.548.132.132 0 0 0 .011.012.429.429 0 0 0 .575-.05l3.345-3.644z" overflow="visible" transform="translate(-602.723 -2521.596) scale(3.77953)"/><path fill="#5a3392" d="M164.761 673.522a.794.794 0 1 0 .795.795.798.798 0 0 0-.795-.795z" overflow="visible" style="line-height:normal;text-indent:0;text-align:start;text-decoration-line:none;text-decoration-style:solid;text-decoration-color:#000;text-transform:none;block-progression:tb;white-space:normal;isolation:auto;mix-blend-mode:normal;solid-color:#000;solid-opacity:1" transform="translate(-602.723 -2521.596) scale(3.77953)"/><path fill="#ee746c" d="M164.761 673.788c.294 0 .53.235.53.53 0 .293-.236.529-.53.529a.527.527 0 0 1-.53-.53c0-.294.236-.529.53-.529z" overflow="visible" style="line-height:normal;text-indent:0;text-align:start;text-decoration-line:none;text-decoration-style:solid;text-decoration-color:#000;text-transform:none;block-progression:tb;white-space:normal;isolation:auto;mix-blend-mode:normal;solid-color:#000;solid-opacity:1" transform="translate(-602.723 -2521.596) scale(3.77953)"/><path fill="#ebfeff" fill-rule="evenodd" d="m623.97 1442.814-13.923 16.475a4.092 4.092 0 0 0 2.82-1.44l11.608-14.613-.504-.422z" overflow="visible" transform="translate(-602.723 -1431.077) scale(.99999)" style="line-height:normal;text-indent:0;text-align:start;text-decoration-line:none;text-decoration-style:solid;text-decoration-color:#000;text-transform:none;block-progression:tb;white-space:normal;isolation:auto;mix-blend-mode:normal;solid-color:#000;solid-opacity:1"/><path fill="#fb9761" style="line-height:normal;text-indent:0;text-align:start;text-decoration-line:none;text-decoration-style:solid;text-decoration-color:#000;text-transform:none;block-progression:tb;white-space:normal;isolation:auto;mix-blend-mode:normal;solid-color:#000;solid-opacity:1" d="M164.68 673.881a.33.33 0 0 1 .33.33.33.33 0 0 1-.33.332.33.33 0 0 1-.331-.331.33.33 0 0 1 .33-.33z" overflow="visible" transform="translate(-602.723 -2521.596) scale(3.77953)"/></g></svg>